<?xml version="1.0" standalone="no"?>
<!DOCTYPE svg PUBLIC "-//W3C//DTD SVG 20010904//EN"
 "http://www.w3.org/TR/2001/REC-SVG-20010904/DTD/svg10.dtd">
<svg version="1.0" xmlns="http://www.w3.org/2000/svg"
 width="500.000000pt" height="164.000000pt" viewBox="0 0 500.000000 164.000000"
 preserveAspectRatio="xMidYMid meet">
<metadata>
Created by potrace 1.16, written by Peter Selinger 2001-2019
</metadata>
<g transform="translate(0.000000,164.000000) scale(0.100000,-0.100000)"
fill="#000000" stroke="none">
<path d="M850 1268 c-11 -12 -20 -34 -20 -50 0 -27 -2 -28 -45 -28 l-45 0 0
-45 0 -45 -87 0 c-49 0 -95 -5 -103 -10 -13 -8 -15 -51 -18 -263 -3 -224 -1
-257 13 -271 13 -13 40 -16 141 -16 68 0 124 -3 124 -7 0 -5 -6 -30 -13 -58
l-13 -50 -52 -3 c-48 -3 -52 -5 -52 -28 l0 -24 225 0 225 0 0 25 c0 27 -31 41
-75 33 -22 -5 -26 -1 -36 36 -5 23 -12 49 -15 59 -5 16 5 17 120 17 100 0 128
3 140 16 24 23 24 505 0 528 -12 12 -36 16 -100 16 l-84 0 0 45 0 45 -45 0
c-43 0 -45 1 -45 28 0 42 -33 72 -80 72 -27 0 -45 -7 -60 -22z m-20 -119 c0
-11 -5 -29 -11 -40 -12 -22 3 -49 27 -49 17 0 29 39 15 53 -6 6 -11 21 -11 34
0 21 4 23 60 23 64 0 85 -15 60 -45 -18 -22 -9 -60 15 -60 14 0 21 8 23 28 2
15 -1 27 -7 27 -6 0 -11 11 -11 25 0 22 4 25 36 25 l37 0 -7 -92 c-3 -50 -6
-124 -6 -165 l0 -73 -140 0 -140 0 0 165 0 165 30 0 c24 0 30 -4 30 -21z m-85
-79 c3 -5 -29 -10 -82 -12 l-88 -3 -3 -189 c-1 -113 1 -193 7 -199 12 -12 642
-10 654 2 4 4 6 93 5 197 l-3 189 -77 3 c-43 2 -78 7 -78 12 0 11 138 14 164
4 14 -5 16 -37 16 -255 l0 -249 -26 -10 c-47 -18 -342 -7 -312 11 14 9 1 42
-17 42 -5 0 -14 -8 -20 -17 -7 -12 -6 -19 4 -25 9 -6 -21 -12 -82 -16 -107 -8
-232 -4 -244 9 -12 12 -13 489 -1 504 12 15 174 17 183 2z m-5 -99 c0 -37 3
-89 6 -115 l7 -46 161 2 161 3 3 113 3 112 67 0 67 0 -3 -180 -3 -180 -309 0
-310 0 0 180 0 180 75 0 75 0 0 -69z m250 -472 c6 -22 14 -47 17 -55 4 -12
-13 -14 -102 -14 -88 0 -106 3 -102 14 3 8 11 32 18 55 l12 41 73 0 73 0 11
-41z"/>
<path d="M1500 1070 c-7 -33 -10 -63 -6 -67 3 -3 21 10 38 30 27 30 41 37 78
39 l45 3 3 -135 c4 -172 -2 -220 -29 -220 -12 0 -19 -7 -19 -18 0 -17 9 -19
95 -18 82 1 95 3 95 18 0 10 -9 18 -22 20 -23 3 -23 4 -23 178 l0 175 45 -3
c37 -3 50 -9 77 -40 17 -20 35 -33 39 -30 3 4 2 33 -2 65 -8 50 -12 58 -29 56
-45 -6 -323 -4 -346 2 -25 6 -27 4 -39 -55z"/>
<path d="M2503 1106 c-58 -23 -65 -36 -30 -58 21 -15 22 -21 22 -169 0 -152 0
-154 -22 -157 -14 -2 -23 -10 -23 -21 0 -15 10 -17 75 -17 65 1 75 3 75 19 0
9 -4 17 -10 17 -6 0 -10 33 -10 79 0 59 4 84 16 95 18 18 23 19 44 6 11 -6 16
-32 18 -89 3 -67 1 -82 -12 -87 -9 -3 -16 -14 -16 -24 0 -16 13 -17 145 -16
131 1 145 3 145 19 0 9 -7 17 -16 17 -11 0 -14 6 -8 23 8 25 64 107 74 107 3
0 20 -29 38 -65 18 -36 26 -64 20 -62 -7 1 -14 -8 -16 -20 -3 -21 -1 -22 90
-20 76 2 93 5 96 18 2 10 -8 19 -28 25 -31 9 -40 22 -146 195 -2 3 4 15 14 25
9 10 26 33 36 49 32 51 69 85 93 85 16 0 23 6 23 19 0 17 -8 19 -75 19 -66 -1
-75 -3 -75 -19 0 -12 7 -19 20 -19 11 0 20 -2 20 -5 0 -2 -18 -32 -40 -66 -35
-54 -43 -61 -39 -33 0 4 -4 10 -9 13 -5 3 -19 25 -31 49 l-21 42 21 0 c14 0
19 5 17 17 -3 15 -16 17 -98 17 -82 0 -95 -2 -98 -17 -3 -12 3 -17 22 -17 21
0 34 -12 63 -57 20 -32 46 -76 58 -99 l21 -41 -23 -36 c-13 -20 -43 -57 -66
-82 -36 -37 -50 -45 -80 -45 l-37 0 0 86 c0 47 -5 94 -10 104 -6 11 -28 24
-49 31 -31 9 -43 8 -69 -5 l-31 -16 -3 102 c-2 57 -7 102 -13 103 -5 2 -34 -7
-62 -19z"/>
<path d="M2010 932 c-43 -21 -70 -72 -70 -131 0 -37 6 -49 39 -82 35 -35 44
-39 90 -39 45 0 56 5 89 34 28 27 34 37 25 47 -9 9 -18 7 -39 -10 -15 -11 -37
-21 -49 -21 -28 0 -63 38 -71 78 l-6 32 81 0 c75 0 81 2 81 20 0 32 -28 67
-62 79 -43 15 -68 14 -108 -7z"/>
<path d="M2290 936 c-52 -19 -80 -67 -80 -136 0 -54 3 -60 35 -89 29 -25 44
-31 83 -31 47 0 112 26 120 48 2 8 -12 9 -48 5 -44 -5 -54 -3 -75 17 -21 20
-25 33 -25 86 0 44 4 65 16 75 14 11 20 9 43 -20 32 -39 74 -41 79 -4 6 44
-82 74 -148 49z"/>
<path d="M3248 933 c-49 -15 -59 -31 -33 -53 12 -10 15 -42 15 -171 0 -135 -2
-159 -15 -159 -8 0 -15 -4 -15 -10 0 -6 33 -10 80 -10 75 0 105 11 60 23 -17
4 -20 14 -20 66 l0 61 38 0 c42 0 94 28 117 64 9 13 19 48 22 78 4 44 2 57
-16 80 -31 39 -87 54 -132 35 -28 -11 -38 -12 -45 -2 -7 9 -19 9 -56 -2z"/>
<path d="M3595 939 c-11 -4 -32 -10 -47 -13 -33 -7 -35 -19 -8 -53 15 -19 20
-41 20 -85 0 -51 -3 -61 -20 -65 -11 -3 -20 -13 -20 -23 0 -15 11 -17 85 -17
75 1 85 3 85 19 0 13 -8 18 -25 18 -24 0 -25 2 -25 68 0 80 9 98 48 94 34 -4
56 19 47 48 -9 28 -50 26 -80 -5 -23 -22 -25 -22 -25 -5 0 24 -10 30 -35 19z"/>
<path d="M3820 936 c-40 -14 -80 -74 -80 -119 0 -78 56 -137 130 -137 40 0 55
6 89 34 36 30 39 36 25 44 -13 7 -23 4 -38 -9 -45 -42 -116 -4 -116 62 l0 29
75 0 c68 0 75 2 75 20 0 39 -22 67 -60 79 -45 13 -55 13 -100 -3z"/>
<path d="M4067 936 c-37 -16 -47 -33 -47 -77 0 -42 17 -60 78 -84 34 -14 42
-22 40 -39 -5 -33 -41 -32 -71 3 -33 40 -47 39 -47 -4 0 -42 20 -55 85 -55 35
0 52 6 70 24 57 57 39 120 -43 150 -43 15 -52 23 -50 40 5 33 37 31 74 -5 26
-25 35 -29 39 -17 11 29 -12 65 -45 72 -41 8 -49 7 -83 -8z"/>
<path d="M4293 937 c-26 -9 -34 -18 -39 -46 -11 -57 5 -83 69 -113 60 -29 66
-38 42 -58 -22 -18 -64 -4 -75 25 -15 38 -40 32 -40 -10 0 -42 20 -55 83 -55
67 0 97 28 97 90 0 53 -12 66 -83 89 -30 10 -38 17 -35 34 5 34 36 32 72 -2
32 -31 46 -32 46 -1 0 45 -71 70 -137 47z"/>
</g>
</svg>
